<svg width="153" height="28" viewBox="0 0 153 28" fill="none" xmlns="http://www.w3.org/2000/svg">
<g filter="url(#filter0_d_1_1065)">
<path d="M12.294 0.592H15.596L17.676 6.702L19.756 0.592H23.084L19.938 8.99L22.278 14.892L27.504 0.539999H31.404L23.89 19H20.874L17.676 11.252L14.478 19H11.462L4 0.539999H7.848L13.1 14.892L15.388 8.99L12.294 0.592ZM38.3793 19.26C37.2873 19.26 36.2993 19.078 35.4153 18.714C34.5313 18.3327 33.7773 17.8213 33.1533 17.18C32.5293 16.5387 32.044 15.7933 31.6973 14.944C31.368 14.0947 31.2033 13.202 31.2033 12.266C31.2033 11.2953 31.368 10.3853 31.6973 9.536C32.0266 8.66933 32.5033 7.91533 33.1273 7.274C33.7513 6.61533 34.5053 6.09533 35.3893 5.714C36.2906 5.33267 37.296 5.142 38.4053 5.142C39.5146 5.142 40.5026 5.33267 41.3693 5.714C42.2533 6.09533 42.9986 6.60667 43.6053 7.248C44.2293 7.88933 44.6973 8.63467 45.0093 9.484C45.3386 10.3333 45.5033 11.2173 45.5033 12.136C45.5033 12.3613 45.4946 12.578 45.4773 12.786C45.4773 12.994 45.46 13.1673 45.4253 13.306H34.8953C34.9473 13.8433 35.0773 14.32 35.2853 14.736C35.4933 15.152 35.762 15.5073 36.0913 15.802C36.4206 16.0967 36.7933 16.322 37.2093 16.478C37.6253 16.634 38.0586 16.712 38.5093 16.712C39.2026 16.712 39.8526 16.5473 40.4593 16.218C41.0833 15.8713 41.508 15.4207 41.7333 14.866L44.7233 15.698C44.2206 16.738 43.4146 17.596 42.3053 18.272C41.2133 18.9307 39.9046 19.26 38.3793 19.26ZM41.9153 11.044C41.8286 10.0213 41.4473 9.20667 40.7713 8.6C40.1126 7.976 39.3066 7.664 38.3533 7.664C37.8853 7.664 37.4433 7.75067 37.0273 7.924C36.6286 8.08 36.2733 8.30533 35.9613 8.6C35.6493 8.89467 35.3893 9.25 35.1813 9.666C34.9906 10.082 34.878 10.5413 34.8433 11.044H41.9153ZM56.1538 19.26C55.1138 19.26 54.1864 19.026 53.3718 18.558C52.5571 18.09 51.9158 17.4487 51.4478 16.634V19H48.4058V0.0199995H51.8898V7.768C52.3751 6.936 53.0078 6.29467 53.7878 5.844C54.5851 5.376 55.5124 5.142 56.5698 5.142C57.4538 5.142 58.2598 5.33267 58.9878 5.714C59.7158 6.09533 60.3398 6.60667 60.8598 7.248C61.3971 7.88933 61.8044 8.64333 62.0818 9.51C62.3764 10.3767 62.5238 11.2867 62.5238 12.24C62.5238 13.228 62.3591 14.1467 62.0298 14.996C61.7178 15.8453 61.2758 16.5907 60.7038 17.232C60.1318 17.856 59.4558 18.35 58.6758 18.714C57.8958 19.078 57.0551 19.26 56.1538 19.26ZM55.1918 16.296C55.7464 16.296 56.2578 16.192 56.7258 15.984C57.1938 15.7587 57.5924 15.464 57.9218 15.1C58.2511 14.736 58.5024 14.3113 58.6758 13.826C58.8664 13.3407 58.9618 12.8207 58.9618 12.266C58.9618 11.7113 58.8751 11.1827 58.7018 10.68C58.5284 10.1773 58.2771 9.73533 57.9478 9.354C57.6358 8.97267 57.2631 8.66933 56.8298 8.444C56.3964 8.21867 55.9198 8.106 55.3998 8.106C54.6198 8.106 53.9178 8.366 53.2938 8.886C52.6871 9.38867 52.2191 10.0127 51.8898 10.758V14.008C52.0111 14.3547 52.1844 14.6667 52.4098 14.944C52.6524 15.2213 52.9211 15.464 53.2158 15.672C53.5104 15.8627 53.8311 16.0187 54.1778 16.14C54.5244 16.244 54.8624 16.296 55.1918 16.296Z" fill="#2196F3"/>
<path d="M77.0003 5.376C76.8789 5.25467 76.6536 5.09 76.3243 4.882C76.0123 4.674 75.6223 4.47467 75.1543 4.284C74.7036 4.076 74.2096 3.90267 73.6723 3.764C73.1349 3.62533 72.5889 3.556 72.0343 3.556C71.0463 3.556 70.3096 3.738 69.8243 4.102C69.3389 4.466 69.0963 4.97733 69.0963 5.636C69.0963 6.01733 69.1829 6.338 69.3563 6.598C69.5469 6.84067 69.8156 7.05733 70.1623 7.248C70.5089 7.43867 70.9423 7.612 71.4623 7.768C71.9996 7.924 72.6149 8.08867 73.3083 8.262C74.2096 8.50467 75.0243 8.76467 75.7523 9.042C76.4976 9.31933 77.1216 9.666 77.6243 10.082C78.1443 10.498 78.5429 11.0007 78.8203 11.59C79.0976 12.162 79.2363 12.8727 79.2363 13.722C79.2363 14.71 79.0456 15.5593 78.6643 16.27C78.3003 16.9633 77.7976 17.5267 77.1563 17.96C76.5323 18.3933 75.8043 18.714 74.9723 18.922C74.1576 19.1127 73.2996 19.208 72.3983 19.208C71.0116 19.208 69.6423 19 68.2903 18.584C66.9383 18.168 65.7249 17.5787 64.6503 16.816L66.2363 13.722C66.3923 13.878 66.6696 14.086 67.0683 14.346C67.4843 14.5887 67.9696 14.84 68.5243 15.1C69.0789 15.3427 69.6943 15.5507 70.3703 15.724C71.0463 15.8973 71.7396 15.984 72.4503 15.984C74.4263 15.984 75.4143 15.3513 75.4143 14.086C75.4143 13.6873 75.3016 13.3493 75.0763 13.072C74.8509 12.7947 74.5303 12.552 74.1143 12.344C73.6983 12.136 73.1956 11.9453 72.6063 11.772C72.0169 11.5987 71.3583 11.408 70.6303 11.2C69.7463 10.9573 68.9749 10.6973 68.3163 10.42C67.6749 10.1253 67.1376 9.78733 66.7043 9.406C66.2709 9.00733 65.9416 8.55667 65.7163 8.054C65.5083 7.534 65.4043 6.91867 65.4043 6.208C65.4043 5.272 65.5776 4.44 65.9243 3.712C66.2709 2.984 66.7476 2.37733 67.3543 1.892C67.9783 1.40667 68.6976 1.04267 69.5123 0.799999C70.3269 0.539999 71.2023 0.409999 72.1383 0.409999C73.4383 0.409999 74.6343 0.617999 75.7263 1.034C76.8183 1.43267 77.7716 1.90933 78.5863 2.464L77.0003 5.376ZM90.4013 18.298C89.9333 18.506 89.3613 18.714 88.6853 18.922C88.0093 19.13 87.2986 19.234 86.5533 19.234C86.0679 19.234 85.6086 19.1733 85.1753 19.052C84.7593 18.9307 84.3866 18.74 84.0573 18.48C83.7453 18.2027 83.4939 17.856 83.3033 17.44C83.1126 17.0067 83.0173 16.4867 83.0173 15.88V8.054H81.2233V5.376H83.0173V0.956H86.5013V5.376H89.3613V8.054H86.5013V14.71C86.5013 15.1953 86.6226 15.542 86.8653 15.75C87.1253 15.9407 87.4373 16.036 87.8013 16.036C88.1653 16.036 88.5206 15.9753 88.8673 15.854C89.2139 15.7327 89.4913 15.6287 89.6993 15.542L90.4013 18.298ZM97.1558 19.26C95.7518 19.26 94.6858 18.8093 93.9578 17.908C93.2298 17.0067 92.8658 15.672 92.8658 13.904V5.376H96.3498V13.15C96.3498 15.2473 97.1038 16.296 98.6118 16.296C99.2878 16.296 99.9378 16.0967 100.562 15.698C101.203 15.282 101.723 14.658 102.122 13.826V5.376H105.606V14.996C105.606 15.36 105.666 15.62 105.788 15.776C105.926 15.932 106.143 16.0187 106.438 16.036V19C106.091 19.0693 105.796 19.1127 105.554 19.13C105.328 19.1473 105.12 19.156 104.93 19.156C104.306 19.156 103.794 19.0173 103.396 18.74C103.014 18.4453 102.789 18.0467 102.72 17.544L102.642 16.452C102.035 17.388 101.255 18.09 100.302 18.558C99.3484 19.026 98.2998 19.26 97.1558 19.26ZM115.49 19.26C114.554 19.26 113.687 19.078 112.89 18.714C112.093 18.35 111.408 17.8473 110.836 17.206C110.264 16.5647 109.813 15.8193 109.484 14.97C109.172 14.1033 109.016 13.176 109.016 12.188C109.016 11.2 109.163 10.2813 109.458 9.432C109.77 8.58267 110.195 7.83733 110.732 7.196C111.269 6.55467 111.911 6.052 112.656 5.688C113.401 5.324 114.216 5.142 115.1 5.142C116.105 5.142 117.007 5.38467 117.804 5.87C118.619 6.35533 119.251 6.988 119.702 7.768V0.0199995H123.186V14.996C123.186 15.36 123.247 15.62 123.368 15.776C123.489 15.932 123.697 16.0187 123.992 16.036V19C123.385 19.1213 122.891 19.182 122.51 19.182C121.886 19.182 121.375 19.026 120.976 18.714C120.577 18.402 120.352 17.9947 120.3 17.492L120.222 16.634C119.719 17.5007 119.035 18.1593 118.168 18.61C117.319 19.0433 116.426 19.26 115.49 19.26ZM116.4 16.296C116.729 16.296 117.067 16.244 117.414 16.14C117.761 16.0187 118.081 15.854 118.376 15.646C118.671 15.438 118.931 15.1953 119.156 14.918C119.399 14.6407 119.581 14.3373 119.702 14.008V10.758C119.563 10.3767 119.364 10.03 119.104 9.718C118.861 9.38867 118.575 9.11133 118.246 8.886C117.934 8.64333 117.596 8.45267 117.232 8.314C116.885 8.17533 116.539 8.106 116.192 8.106C115.672 8.106 115.187 8.21867 114.736 8.444C114.303 8.66933 113.93 8.98133 113.618 9.38C113.306 9.76133 113.063 10.2033 112.89 10.706C112.717 11.2087 112.63 11.7287 112.63 12.266C112.63 12.838 112.725 13.3667 112.916 13.852C113.107 14.3373 113.367 14.762 113.696 15.126C114.025 15.49 114.415 15.776 114.866 15.984C115.334 16.192 115.845 16.296 116.4 16.296ZM127.386 19V5.376H130.87V19H127.386ZM127.386 3.478V0.0199995H130.87V3.478H127.386ZM141.085 19.26C139.975 19.26 138.979 19.0693 138.095 18.688C137.211 18.3067 136.457 17.7953 135.833 17.154C135.226 16.4953 134.758 15.7413 134.429 14.892C134.099 14.0427 133.935 13.15 133.935 12.214C133.935 11.2607 134.099 10.3593 134.429 9.51C134.758 8.66067 135.226 7.91533 135.833 7.274C136.457 6.61533 137.211 6.09533 138.095 5.714C138.979 5.33267 139.975 5.142 141.085 5.142C142.194 5.142 143.182 5.33267 144.049 5.714C144.933 6.09533 145.678 6.61533 146.285 7.274C146.909 7.91533 147.385 8.66067 147.715 9.51C148.044 10.3593 148.209 11.2607 148.209 12.214C148.209 13.15 148.044 14.0427 147.715 14.892C147.385 15.7413 146.917 16.4953 146.311 17.154C145.704 17.7953 144.959 18.3067 144.075 18.688C143.191 19.0693 142.194 19.26 141.085 19.26ZM137.523 12.214C137.523 12.8207 137.609 13.3753 137.783 13.878C137.973 14.3633 138.225 14.788 138.537 15.152C138.866 15.516 139.247 15.802 139.681 16.01C140.114 16.2007 140.582 16.296 141.085 16.296C141.587 16.296 142.055 16.2007 142.489 16.01C142.922 15.802 143.295 15.516 143.607 15.152C143.936 14.788 144.187 14.3547 144.361 13.852C144.551 13.3493 144.647 12.7947 144.647 12.188C144.647 11.5987 144.551 11.0527 144.361 10.55C144.187 10.0473 143.936 9.614 143.607 9.25C143.295 8.886 142.922 8.60867 142.489 8.418C142.055 8.21 141.587 8.106 141.085 8.106C140.582 8.106 140.114 8.21 139.681 8.418C139.247 8.626 138.866 8.912 138.537 9.276C138.225 9.64 137.973 10.0733 137.783 10.576C137.609 11.0787 137.523 11.6247 137.523 12.214Z" fill="black"/>
</g>
<defs>
<filter id="filter0_d_1_1065" x="0" y="0.0200195" width="152.209" height="27.24" filterUnits="userSpaceOnUse" color-interpolation-filters="sRGB">
<feFlood flood-opacity="0" result="BackgroundImageFix"/>
<feColorMatrix in="SourceAlpha" type="matrix" values="0 0 0 0 0 0 0 0 0 0 0 0 0 0 0 0 0 0 127 0" result="hardAlpha"/>
<feOffset dy="4"/>
<feGaussianBlur stdDeviation="2"/>
<feComposite in2="hardAlpha" operator="out"/>
<feColorMatrix type="matrix" values="0 0 0 0 0 0 0 0 0 0 0 0 0 0 0 0 0 0 0.25 0"/>
<feBlend mode="normal" in2="BackgroundImageFix" result="effect1_dropShadow_1_1065"/>
<feBlend mode="normal" in="SourceGraphic" in2="effect1_dropShadow_1_1065" result="shape"/>
</filter>
</defs>
</svg>
